<svg xmlns="http://www.w3.org/2000/svg" viewBox="0 0 1003.04 92.9"><defs><style>.cls-1{fill:#f9a826;}</style></defs><g id="Layer_2" data-name="Layer 2"><g id="Layer_1-2" data-name="Layer 1"><path class="cls-1" d="M1.53,0H45.32l3.07,40.87-2.34,21L70.44,35.17Q75.39,29.86,80.73,24t11.46-12.4H113.8a6.88,6.88,0,0,1,4.3,1.39,5.28,5.28,0,0,1,2.12,3.65l4.23,24.15-1.31,20.44q8.61-10,16.64-19.31t14.75-17.25q6.71-7.9,11.6-13.74l7.23-8.62A6.76,6.76,0,0,1,178.62,0H211.9l-8.61,9.89q-5.25,6-11.53,13.2T178.62,38.15q-6.87,7.91-13.51,15.46L152.48,68Q146.5,74.85,142,80t-7.08,8a29.9,29.9,0,0,1-2.41,2.65,6.05,6.05,0,0,1-5.11,2.26H97.59L92.48,46.85q-.44.52-3.36,3.84c-2,2.22-4.3,4.89-7.08,8s-5.74,6.53-8.9,10.16S67,75.89,64.23,79s-5.11,5.79-7,8-2.94,3.38-3.14,3.65A6.05,6.05,0,0,1,49,92.9H19.34c-.29-2.3-.69-5.69-1.17-10.16s-1.05-9.46-1.68-15-1.27-11.3-1.9-17.32-1.26-11.79-1.9-17.32S11.5,22.61,11,18.18,10.14,10.4,9.85,8.1L8,7C7,6.39,6,5.75,4.88,5c-.68-.35-1.34-.73-2-1.13S1.57,3.1.8,2.65A1.31,1.31,0,0,1,.07,1.06,1.54,1.54,0,0,1,1.53,0Z"/><path class="cls-1" d="M198.62,71.66,217.74,21.1a28.31,28.31,0,0,1,4.68-8.16,33.66,33.66,0,0,1,7.37-6.7,36.05,36.05,0,0,1,9.71-4.58A38.91,38.91,0,0,1,251,0h64.68A32.52,32.52,0,0,1,326,1.53a18.88,18.88,0,0,1,7.45,4.31,13.33,13.33,0,0,1,3.72,6.63,15.19,15.19,0,0,1-.88,8.63L317,71.66a31,31,0,0,1-4.6,8.1,31.78,31.78,0,0,1-7.3,6.77,37.74,37.74,0,0,1-9.71,4.64,38.17,38.17,0,0,1-11.68,1.73H219.2a32.52,32.52,0,0,1-10.29-1.53,19.88,19.88,0,0,1-7.52-4.31,12.93,12.93,0,0,1-3.79-6.71A14.7,14.7,0,0,1,198.62,71.66Zm36.94-1.19H281c1.56,0,2.48-.58,2.77-1.73l17.09-44.59c.38-1.15-.15-1.72-1.61-1.72H239.79a1.62,1.62,0,0,0-1.61,1,1.26,1.26,0,0,0,.44,1.66l9,7.43L234,68.74C233.56,69.89,234.1,70.47,235.56,70.47Z"/><path class="cls-1" d="M335.41,92.9q1.75-4.79,4.38-11.62t5.62-14.73q3-7.89,6.28-16.25T358,34.11q3-7.83,5.62-14.6T368,8.1l-8.76-5.45A1.3,1.3,0,0,1,358.55,1a1.59,1.59,0,0,1,1.68-1h98.55a32.43,32.43,0,0,1,10.29,1.53,18.88,18.88,0,0,1,7.45,4.31,13.18,13.18,0,0,1,3.72,6.7,14.94,14.94,0,0,1-.87,8.56q-2.92,7.83-4.82,13.14a79.28,79.28,0,0,1-3.87,9.16,33.5,33.5,0,0,1-4.53,6.76,38.21,38.21,0,0,1-6.93,6,28.58,28.58,0,0,1-7.81,3.91,45.3,45.3,0,0,1-7.52,1.73,60.32,60.32,0,0,1-6.06.53,32.18,32.18,0,0,0-3.43.2l14.89,21.36a5.26,5.26,0,0,1,1,3,5.55,5.55,0,0,1-.8,2.92A6.34,6.34,0,0,1,447.25,92a6.47,6.47,0,0,1-3.36.87H416.3l-18-30.39h-16.5l-10.07,26.4q-1.47,4-6.13,4Zm49.64-67.82q1.32,1.07,2.85,2.19a33.49,33.49,0,0,1,2.7,2.19c.49.44,1,.84,1.46,1.2a17,17,0,0,1,1.46,1.19L390,41h45.25c1.56,0,2.53-.58,2.92-1.73l.44-1.19a6.12,6.12,0,0,0,.51-1.26l.51-1.66c.49-1.15,1-2.35,1.39-3.59s.9-2.43,1.39-3.58a12,12,0,0,1,.73-2,15.9,15.9,0,0,0,.73-1.86c.58-1.15.09-1.72-1.46-1.72H386.22a1.46,1.46,0,0,0-1.53,1A1.39,1.39,0,0,0,385.05,25.08Z"/><path class="cls-1" d="M472.36,92.9q2-5.18,4.82-12.28t5.91-15.06q3.14-8,6.35-16.39T495.64,33q3-7.69,5.48-14.2L505.21,8.1,496.3,2.65A1.21,1.21,0,0,1,495.72,1a1.59,1.59,0,0,1,1.6-1H535a5.56,5.56,0,0,1,4.6,2.12,4.17,4.17,0,0,1,.65,4.52l-6.86,18L572.07,1.06A8.06,8.06,0,0,1,575.72,0h38.84L558.93,33.44l20.3,51.63a5.23,5.23,0,0,1-.73,5.3,7.36,7.36,0,0,1-2.27,1.8,6.7,6.7,0,0,1-3.14.73H543.16q-1-2.79-2.7-7.5T537,75.84q-1.75-4.84-3.28-9.15c-1-2.88-1.78-5-2.26-6.44l2.77-9.16a1.25,1.25,0,0,0-.58-1.52,1.74,1.74,0,0,0-1.9-.07L521.7,54.94l-12.7,34a5.8,5.8,0,0,1-2.48,2.92,7.18,7.18,0,0,1-3.8,1.07Z"/><path class="cls-1" d="M597.33,71.66,616.45,21.1a28.51,28.51,0,0,1,4.67-8.16,34,34,0,0,1,7.38-6.7,35.91,35.91,0,0,1,9.71-4.58A38.91,38.91,0,0,1,649.74,0h64.68a32.52,32.52,0,0,1,10.29,1.53,18.84,18.84,0,0,1,7.44,4.31,13.27,13.27,0,0,1,3.73,6.63A15.19,15.19,0,0,1,735,21.1L715.73,71.66a31.32,31.32,0,0,1-4.6,8.1,32,32,0,0,1-7.3,6.77,37.74,37.74,0,0,1-9.71,4.64,38.17,38.17,0,0,1-11.68,1.73H617.91a32.52,32.52,0,0,1-10.29-1.53,19.8,19.8,0,0,1-7.52-4.31,12.93,12.93,0,0,1-3.79-6.71A14.62,14.62,0,0,1,597.33,71.66Zm36.93-1.19h45.41c1.55,0,2.48-.58,2.77-1.73l17.08-44.59c.39-1.15-.14-1.72-1.6-1.72H638.5a1.61,1.61,0,0,0-1.61,1,1.26,1.26,0,0,0,.44,1.66l9,7.43L632.66,68.74C632.27,69.89,632.8,70.47,634.26,70.47Z"/><path class="cls-1" d="M732.81,71.79q2.33-6.36,4.6-12.34t4.45-11.94c1.26-3.36,2.56-6.86,3.87-10.48s2.6-7.17,3.87-10.62,2.48-6.75,3.65-9.89,2.24-5.95,3.21-8.42l-9.05-5.45c-.78-.44-1-1-.73-1.65a1.59,1.59,0,0,1,1.6-1h46l-8.76,23.22q-1.89,4.79-3.87,9.89t-3.79,10Q776,48,774.34,52.49c-1.12,3-2.11,5.59-3,7.89l-9.2,7.43a1.35,1.35,0,0,0-.51,1.66,1.48,1.48,0,0,0,1.54,1h52.41c1.55,0,2.53-.58,2.92-1.73L843.18,4a6,6,0,0,1,6.13-4H879.1c-.3.89-.93,2.61-1.9,5.18s-2.14,5.64-3.51,9.22-2.84,7.48-4.45,11.68S866,34.5,864.35,38.75q-2.93,7.56-6.06,15.73t-6.5,17.31a34.36,34.36,0,0,1-11.67,15.13q-8,6-19.86,6H753.39a32.52,32.52,0,0,1-10.29-1.53,19.88,19.88,0,0,1-7.52-4.31,13,13,0,0,1-3.79-6.64A14.53,14.53,0,0,1,732.81,71.79Z"/><path class="cls-1" d="M885.37,0H1003c-.39,1.06-.9,2.39-1.53,4s-1.29,3.25-2,5-1.34,3.4-2,5-1.19,3.12-1.68,4.45c-1,2.65-3,4-6.13,4h-36.5a1.46,1.46,0,0,0-1.53,1,1.32,1.32,0,0,0,.51,1.66l8.9,7.43-21.46,56.4c-1,2.66-3,4-6.13,4H903.77l27-70.47H888.15c.09-.27.46-1.08,1.09-2.46s1.31-2.87,2-4.51,1.44-3.18,2.12-4.64a27.94,27.94,0,0,0,1.17-2.72l-9.93-5.31a1.35,1.35,0,0,1-.8-1.73A1.46,1.46,0,0,1,885.37,0Z"/></g></g></svg>