<svg id="Layer_1" data-name="Layer 1" xmlns="http://www.w3.org/2000/svg" viewBox="0 0 40 40"><defs><style>.cls-1{fill:#fff;stroke:#fff;stroke-linecap:round;stroke-linejoin:round;stroke-width:1.5px;}</style></defs><path class="cls-1" d="M32.74,13.48A1.72,1.72,0,0,0,31,11.76v0A1.72,1.72,0,0,0,29.3,13.5h0v4.74H10.7V13.5A1.72,1.72,0,0,0,9,11.78a1.67,1.67,0,0,0-.67.14,1.72,1.72,0,0,0-1,1.24,1.27,1.27,0,0,0,0,.34h0v13A1.72,1.72,0,0,0,9,28.22H9A1.72,1.72,0,0,0,10.7,26.5h0V21h0v.15H29.3V26.5a1.72,1.72,0,0,0,3.44,0h0v-13h0Z"/><path class="cls-1" d="M37.92,19.61h0a1.35,1.35,0,0,0-1.35-1.35H36.2V16.94h0a1.72,1.72,0,0,0-1.72-1.72h0a1.72,1.72,0,0,0-1.72,1.72h0V23a1.72,1.72,0,0,0,3.44,0h0V21.12h.38a1.35,1.35,0,0,0,1.34-1.21h-.05a1.5,1.5,0,0,0,.06-.29Z"/><path class="cls-1" d="M5.52,15.25A1.71,1.71,0,0,0,3.8,17v0h0v1.28H3.42a1.35,1.35,0,0,0-1.35,1.35h0a1.5,1.5,0,0,0,.06.29h0a1.35,1.35,0,0,0,1.34,1.21H3.8v1.95a1.72,1.72,0,0,0,3.44,0h0V17A1.71,1.71,0,0,0,5.52,15.25Z"/></svg>